<svg xmlns="http://www.w3.org/2000/svg" xmlns:xlink="http://www.w3.org/1999/xlink" width="500" zoomAndPan="magnify" viewBox="0 0 375 374.999991" height="500" preserveAspectRatio="xMidYMid meet" version="1.0"><defs><clipPath id="802bdaf85d"><path d="M 64.628906 63.859375 L 310.628906 63.859375 L 310.628906 311.359375 L 64.628906 311.359375 Z M 64.628906 63.859375 " clip-rule="nonzero"/></clipPath></defs><g clip-path="url(#802bdaf85d)"><path fill="#3b82f6" d="M 204.714844 311.136719 C 197.21875 311.136719 190.039062 310.085938 183.066406 308.09375 C 176.09375 306.101562 170.484375 303.429688 166.289062 300.179688 L 173.683594 283.71875 C 177.71875 286.707031 182.542969 289.066406 188.097656 290.847656 C 193.65625 292.628906 199.265625 293.574219 204.820312 293.574219 C 211.007812 293.574219 215.621094 292.628906 218.554688 290.796875 C 221.542969 288.960938 223.011719 286.496094 223.011719 283.457031 C 223.011719 281.203125 222.171875 279.316406 220.390625 277.847656 C 218.660156 276.378906 216.40625 275.171875 213.628906 274.28125 C 210.902344 273.339844 207.179688 272.394531 202.515625 271.292969 C 195.332031 269.5625 189.410156 267.886719 184.847656 266.15625 C 180.289062 264.425781 176.304688 261.699219 173.054688 257.925781 C 169.804688 254.152344 168.125 249.121094 168.125 242.828125 C 168.125 237.324219 169.59375 232.398438 172.582031 227.941406 C 175.570312 223.484375 180.027344 219.921875 186 217.351562 C 191.976562 214.730469 199.265625 213.472656 207.914062 213.472656 C 213.941406 213.472656 219.8125 214.207031 225.582031 215.621094 C 231.347656 217.035156 236.378906 219.132812 240.679688 221.808594 L 233.96875 238.425781 C 225.265625 233.496094 216.5625 231.035156 207.808594 231.035156 C 201.730469 231.035156 197.167969 232.03125 194.285156 233.96875 C 191.347656 235.960938 189.882812 238.582031 189.882812 241.78125 C 189.882812 245.03125 191.558594 247.441406 194.914062 249.015625 C 198.320312 250.585938 203.457031 252.105469 210.378906 253.679688 C 217.558594 255.359375 223.484375 257.085938 228.042969 258.816406 C 232.65625 260.546875 236.589844 263.222656 239.839844 266.890625 C 243.140625 270.558594 244.765625 275.59375 244.765625 281.882812 C 244.765625 287.28125 243.246094 292.210938 240.257812 296.667969 C 237.21875 301.121094 232.710938 304.636719 226.683594 307.257812 C 220.652344 309.824219 213.367188 311.136719 204.714844 311.136719 M 64.695312 63.859375 L 64.695312 201.730469 L 86.554688 201.730469 L 86.554688 85.71875 L 288.488281 85.71875 L 288.488281 287.648438 L 257.140625 287.648438 L 257.140625 309.511719 L 310.296875 309.511719 L 310.296875 63.859375 Z M 151.296875 215.097656 L 151.296875 309.511719 L 129.4375 309.511719 L 129.4375 270.820312 L 86.554688 270.820312 L 86.554688 309.511719 L 64.695312 309.511719 L 64.695312 215.097656 L 86.554688 215.097656 L 86.554688 252.316406 L 129.4375 252.316406 L 129.4375 215.097656 Z M 151.296875 215.097656 " fill-opacity="1" fill-rule="evenodd"/></g></svg>